<?xml version="1.0" encoding="utf-8"?>
<!-- Generator: Adobe Illustrator 25.1.0, SVG Export Plug-In . SVG Version: 6.00 Build 0)  -->
<svg version="1.1" id="Ebene_1" xmlns="http://www.w3.org/2000/svg" xmlns:xlink="http://www.w3.org/1999/xlink" x="0px" y="0px"
	 viewBox="0 0 300 120" style="enable-background:new 0 0 300 120;" xml:space="preserve">
<style type="text/css">
	.st0{fill:#FFFFFF;}
</style>
<g>
	<g>
		<path class="st0" d="M16.8,82.95c-2.08,0-3.96-0.52-5.66-1.56c-1.69-1.04-3.05-2.43-4.07-4.19c-1.02-1.75-1.53-3.7-1.53-5.86
			v-18.3c0-2.08,0.51-3.99,1.53-5.74c1.02-1.75,2.39-3.15,4.1-4.18c1.71-1.04,3.59-1.56,5.63-1.56c2.12,0,4.03,0.51,5.74,1.53
			c1.71,1.02,3.07,2.4,4.07,4.13c1,1.73,1.5,3.68,1.5,5.83v2.66c0,0.16-0.1,0.23-0.29,0.23h-6.47c-0.15,0-0.23-0.08-0.23-0.23v-2.19
			c0-1.46-0.41-2.67-1.24-3.64c-0.83-0.96-1.86-1.44-3.09-1.44c-1.12,0-2.11,0.46-2.97,1.39c-0.87,0.92-1.3,2-1.3,3.23v18.3
			c0,1.27,0.42,2.36,1.27,3.26c0.85,0.9,1.85,1.36,3,1.36c1.23,0,2.26-0.44,3.09-1.33c0.83-0.89,1.24-1.98,1.24-3.29v-2.83h-4.04
			c-0.19,0-0.29-0.1-0.29-0.29v-6.46c0-0.19,0.1-0.29,0.29-0.29h10.8c0.15,0,0.23,0.1,0.23,0.29v9.58c0,2.16-0.51,4.11-1.53,5.86
			c-1.02,1.75-2.38,3.15-4.07,4.19C20.82,82.43,18.91,82.95,16.8,82.95z"/>
		<path class="st0" d="M29.21,82.09l7.16-39.66c0.04-0.15,0.13-0.23,0.29-0.23h8.37c0.15,0,0.25,0.08,0.29,0.23l6.87,39.66
			c0.04,0.19-0.04,0.29-0.23,0.29h-6.41c-0.15,0-0.25-0.1-0.29-0.29l-0.63-4.22h-7.85l-0.63,4.22c-0.04,0.19-0.13,0.29-0.29,0.29
			h-6.41C29.28,82.38,29.21,82.28,29.21,82.09z M37.92,71.69h5.54L41.1,55.47l-0.35-2.14l-0.23,2.14L37.92,71.69z"/>
		<path class="st0" d="M56.05,82.38c-0.15,0-0.23-0.1-0.23-0.29l0.06-39.6c0-0.19,0.1-0.29,0.29-0.29h6.41
			c0.19,0,0.29,0.1,0.29,0.29L62.8,75.28H74.7c0.19,0,0.29,0.1,0.29,0.29v6.52c0,0.19-0.1,0.29-0.29,0.29H56.05z"/>
		<path class="st0" d="M78.97,82.38c-0.15,0-0.23-0.1-0.23-0.29l0.06-39.6c0-0.19,0.1-0.29,0.29-0.29h6.41
			c0.19,0,0.29,0.1,0.29,0.29l-0.06,32.79h11.89c0.19,0,0.29,0.1,0.29,0.29v6.52c0,0.19-0.1,0.29-0.29,0.29H78.97z"/>
		<path class="st0" d="M111.53,82.95c-2.08,0-3.97-0.53-5.69-1.59c-1.71-1.06-3.09-2.46-4.13-4.22c-1.04-1.75-1.56-3.68-1.56-5.8
			l0.06-18.3c0-2.12,0.51-4.04,1.53-5.77c1.02-1.73,2.4-3.12,4.13-4.15c1.73-1.04,3.62-1.56,5.66-1.56c2.08,0,3.96,0.52,5.66,1.56
			c1.69,1.04,3.05,2.42,4.07,4.15c1.02,1.73,1.53,3.66,1.53,5.77l0.06,18.3c0,2.12-0.51,4.05-1.53,5.8
			c-1.02,1.75-2.39,3.16-4.1,4.22C115.5,82.42,113.6,82.95,111.53,82.95z M111.53,75.97c1.16,0,2.17-0.47,3.03-1.41
			c0.86-0.94,1.3-2.01,1.3-3.2l-0.06-18.3c0-1.27-0.4-2.35-1.21-3.23c-0.81-0.89-1.83-1.33-3.06-1.33c-1.19,0-2.21,0.43-3.06,1.3
			c-0.85,0.86-1.27,1.95-1.27,3.26v18.3c0,1.27,0.42,2.36,1.27,3.26S110.33,75.97,111.53,75.97z"/>
		<path class="st0" d="M137.79,82.95c-2.08,0-3.96-0.52-5.66-1.56c-1.69-1.04-3.05-2.43-4.07-4.19c-1.02-1.75-1.53-3.7-1.53-5.86
			v-18.3c0-2.08,0.51-3.99,1.53-5.74c1.02-1.75,2.39-3.15,4.1-4.18c1.71-1.04,3.59-1.56,5.63-1.56c2.12,0,4.03,0.51,5.74,1.53
			c1.71,1.02,3.07,2.4,4.07,4.13c1,1.73,1.5,3.68,1.5,5.83v2.66c0,0.16-0.1,0.23-0.29,0.23h-6.47c-0.15,0-0.23-0.08-0.23-0.23v-2.19
			c0-1.46-0.41-2.67-1.24-3.64c-0.83-0.96-1.86-1.44-3.09-1.44c-1.12,0-2.11,0.46-2.97,1.39c-0.87,0.92-1.3,2-1.3,3.23v18.3
			c0,1.27,0.42,2.36,1.27,3.26c0.85,0.9,1.85,1.36,3,1.36c1.23,0,2.26-0.44,3.09-1.33c0.83-0.89,1.24-1.98,1.24-3.29v-2.83h-4.04
			c-0.19,0-0.29-0.1-0.29-0.29v-6.46c0-0.19,0.1-0.29,0.29-0.29h10.8c0.15,0,0.23,0.1,0.23,0.29v9.58c0,2.16-0.51,4.11-1.53,5.86
			c-1.02,1.75-2.38,3.15-4.07,4.19C141.81,82.43,139.91,82.95,137.79,82.95z"/>
		<path class="st0" d="M153.44,82.38c-0.16,0-0.23-0.1-0.23-0.29l0.12-39.66c0-0.15,0.08-0.23,0.23-0.23h11.66
			c2.08,0,3.99,0.51,5.74,1.53c1.75,1.02,3.15,2.39,4.18,4.1c1.04,1.71,1.56,3.65,1.56,5.8c0,1.42-0.21,2.7-0.63,3.84
			c-0.43,1.14-0.93,2.1-1.5,2.89s-1.1,1.38-1.56,1.76c2.08,2.31,3.12,5.02,3.12,8.14l0.06,11.83c0,0.19-0.1,0.29-0.29,0.29h-6.52
			c-0.16,0-0.23-0.06-0.23-0.17V70.25c0-1.39-0.49-2.59-1.47-3.61c-0.98-1.02-2.19-1.53-3.61-1.53h-3.81l-0.06,16.97
			c0,0.19-0.08,0.29-0.23,0.29H153.44z M160.25,58.19h4.97c1.19,0,2.25-0.44,3.17-1.33c0.93-0.89,1.39-1.96,1.39-3.23
			c0-1.23-0.45-2.29-1.36-3.18c-0.9-0.89-1.97-1.33-3.2-1.33h-4.97V58.19z"/>
		<path class="st0" d="M179.07,82.09l7.16-39.66c0.04-0.15,0.13-0.23,0.29-0.23h8.37c0.15,0,0.25,0.08,0.29,0.23l6.87,39.66
			c0.04,0.19-0.04,0.29-0.23,0.29h-6.41c-0.16,0-0.25-0.1-0.29-0.29l-0.63-4.22h-7.85l-0.63,4.22c-0.04,0.19-0.14,0.29-0.29,0.29
			h-6.41C179.14,82.38,179.07,82.28,179.07,82.09z M187.78,71.69h5.54l-2.37-16.22l-0.35-2.14l-0.23,2.14L187.78,71.69z"/>
		<path class="st0" d="M205.97,82.38c-0.19,0-0.29-0.1-0.29-0.29l0.12-39.66c0-0.15,0.08-0.23,0.23-0.23h11.08
			c3.54,0,6.34,1.08,8.4,3.23c2.06,2.16,3.09,5.08,3.09,8.77c0,2.73-0.54,5.1-1.62,7.1c-1.08,2-2.48,3.54-4.21,4.62
			c-1.73,1.08-3.62,1.62-5.66,1.62h-4.39v14.55c0,0.19-0.1,0.29-0.29,0.29H205.97z M212.72,60.55h4.39c1.23,0,2.3-0.59,3.2-1.76
			c0.9-1.17,1.36-2.7,1.36-4.59c0-1.5-0.4-2.73-1.21-3.69c-0.81-0.96-1.92-1.44-3.35-1.44l-4.39,0.06V60.55z"/>
		<path class="st0" d="M232.75,82.38c-0.16,0-0.23-0.1-0.23-0.29l0.06-39.66c0-0.15,0.1-0.23,0.29-0.23h6.41
			c0.19,0,0.29,0.08,0.29,0.23l-0.06,15.7h8.66v-15.7c0-0.15,0.08-0.23,0.23-0.23h6.41c0.19,0,0.29,0.08,0.29,0.23l0.11,39.66
			c0,0.19-0.1,0.29-0.29,0.29h-6.47c-0.19,0-0.29-0.1-0.29-0.29V65.11h-8.66v16.97c0,0.19-0.08,0.29-0.23,0.29H232.75z"/>
		<path class="st0" d="M260.23,82.38c-0.19,0-0.29-0.1-0.29-0.29L260,42.43c0-0.15,0.08-0.23,0.23-0.23h6.47
			c0.15,0,0.23,0.08,0.23,0.23l0.06,39.66c0,0.19-0.08,0.29-0.23,0.29H260.23z"/>
		<path class="st0" d="M282.69,82.95c-2.12,0-4.03-0.53-5.74-1.59c-1.71-1.06-3.07-2.47-4.07-4.24c-1-1.77-1.5-3.75-1.5-5.95
			l0.06-18.01c0-2.12,0.49-4.05,1.47-5.8c0.98-1.75,2.33-3.16,4.04-4.22c1.71-1.06,3.63-1.59,5.74-1.59c2.12,0,4.02,0.52,5.71,1.56
			c1.69,1.04,3.04,2.43,4.04,4.18c1,1.75,1.5,3.7,1.5,5.86v2.66c0,0.15-0.08,0.23-0.23,0.23h-6.47c-0.15,0-0.23-0.08-0.23-0.23
			v-2.66c0-1.27-0.41-2.37-1.24-3.29c-0.83-0.93-1.86-1.39-3.09-1.39c-1.39,0-2.45,0.47-3.18,1.41c-0.73,0.94-1.1,2.03-1.1,3.26
			v18.01c0,1.43,0.41,2.58,1.24,3.46c0.83,0.89,1.84,1.33,3.03,1.33c1.23,0,2.26-0.49,3.09-1.47c0.83-0.98,1.24-2.09,1.24-3.32
			v-2.66c0-0.15,0.08-0.23,0.23-0.23h6.52c0.15,0,0.23,0.08,0.23,0.23v2.66c0,2.19-0.51,4.18-1.53,5.95
			c-1.02,1.77-2.38,3.19-4.07,4.24C286.71,82.42,284.8,82.95,282.69,82.95z"/>
	</g>
	<g>
		<rect x="6.41" y="18.55" class="st0" width="286.75" height="2.12"/>
	</g>
	<g>
		<rect x="6.41" y="103.52" class="st0" width="286.75" height="2.12"/>
	</g>
</g>
</svg>
